<svg width="180" height="80" viewBox="0 0 180 80" fill="none" xmlns="http://www.w3.org/2000/svg">
<path d="M14.7797 27.5039V14.6899H27.6921H52.478H65.3043V27.5039L52.478 14.6899H27.6921L14.7797 27.5039Z" fill="#C59A4B"/>
<path d="M65.3043 51.4458V65.2127H51.6349H28.4509H14.7797V51.8673L28.4509 65.2127H51.6349L65.3043 51.4458Z" fill="#C59A4B"/>
<path fill-rule="evenodd" clip-rule="evenodd" d="M39.9669 3.41958L3.51454 39.872L39.9669 76.3244L76.4193 39.872L39.9669 3.41958ZM2.38159 39.872L39.9669 77.4573L77.5523 39.872L39.9669 2.28663L2.38159 39.872Z" fill="#C59A4B"/>
<path fill-rule="evenodd" clip-rule="evenodd" d="M31.1646 13.8124H48.37L65.7811 31.311V48.6437L48.5633 66.0014H31.247L13.798 48.6453V31.3113L31.1646 13.8124ZM31.4982 14.6135L14.5991 31.6413V48.3122L31.5775 65.2003H48.2295L64.98 48.3138V31.6416L48.0369 14.6135H31.4982Z" fill="#C59A4B"/>
<path fill-rule="evenodd" clip-rule="evenodd" d="M67.4619 12.5287H12.622V67.3685H67.4619V12.5287ZM11.8209 11.7276V68.1697H68.263V11.7276H11.8209Z" fill="#C59A4B"/>
<path d="M53.3959 49.041C51.9563 49.041 50.6673 48.6894 49.529 47.9864C48.3907 47.2666 47.4952 46.2287 46.8423 44.8728C46.1895 43.5169 45.863 41.8764 45.863 39.9513C45.863 38.0263 46.1895 36.3858 46.8423 35.0299C47.4952 33.674 48.3907 32.6445 49.529 31.9414C50.6673 31.2216 51.9563 30.8617 53.3959 30.8617C54.8522 30.8617 56.1412 31.2216 57.2628 31.9414C58.4011 32.6445 59.2966 33.674 59.9495 35.0299C60.6023 36.3858 60.9287 38.0263 60.9287 39.9513C60.9287 41.8764 60.6023 43.5169 59.9495 44.8728C59.2966 46.2287 58.4011 47.2666 57.2628 47.9864C56.1412 48.6894 54.8522 49.041 53.3959 49.041ZM53.3959 45.601C54.0822 45.601 54.6765 45.4085 55.1787 45.0235C55.6976 44.6384 56.0993 44.0274 56.3839 43.1905C56.6852 42.3535 56.8359 41.2738 56.8359 39.9513C56.8359 38.6289 56.6852 37.5492 56.3839 36.7122C56.0993 35.8752 55.6976 35.2642 55.1787 34.8792C54.6765 34.4942 54.0822 34.3017 53.3959 34.3017C52.7263 34.3017 52.132 34.4942 51.6131 34.8792C51.1109 35.2642 50.7092 35.8752 50.4079 36.7122C50.1233 37.5492 49.981 38.6289 49.981 39.9513C49.981 41.2738 50.1233 42.3535 50.4079 43.1905C50.7092 44.0274 51.1109 44.6384 51.6131 45.0235C52.132 45.4085 52.7263 45.601 53.3959 45.601Z" fill="#C59A4B"/>
<path d="M36.5686 49.041C35.0955 49.041 33.8066 48.8234 32.7017 48.3881C31.5969 47.9362 30.7348 47.3084 30.1155 46.5049C29.4961 45.6847 29.1864 44.7305 29.1864 43.6424C29.1864 42.5544 29.4877 41.6337 30.0903 40.8804C30.7097 40.1104 31.5718 39.5328 32.6766 39.1478C33.7814 38.7461 35.0788 38.5452 36.5686 38.5452C38.0752 38.5452 39.3809 38.7461 40.4857 39.1478C41.6072 39.5328 42.4693 40.1104 43.072 40.8804C43.6913 41.6337 44.001 42.5544 44.001 43.6424C44.001 44.7305 43.6913 45.6847 43.072 46.5049C42.4526 47.3084 41.5821 47.9362 40.4606 48.3881C39.3558 48.8234 38.0584 49.041 36.5686 49.041ZM36.5686 46.0529C37.5897 46.0529 38.3932 45.827 38.9791 45.375C39.5817 44.923 39.8831 44.3037 39.8831 43.5169C39.8831 42.7301 39.5817 42.1191 38.9791 41.6839C38.3932 41.2319 37.5897 41.0059 36.5686 41.0059C35.5642 41.0059 34.7691 41.2319 34.1832 41.6839C33.5973 42.1191 33.3044 42.7301 33.3044 43.5169C33.3044 44.3037 33.5973 44.923 34.1832 45.375C34.7691 45.827 35.5642 46.0529 36.5686 46.0529ZM36.5686 40.6042C35.2127 40.6042 34.0242 40.42 33.003 40.0518C31.9987 39.6835 31.2119 39.1478 30.6428 38.4448C30.0903 37.725 29.8141 36.8712 29.8141 35.8836C29.8141 34.8457 30.0987 33.9585 30.6679 33.222C31.237 32.4687 32.0321 31.8912 33.0533 31.4894C34.0744 31.0709 35.2462 30.8617 36.5686 30.8617C37.9245 30.8617 39.1047 31.0709 40.109 31.4894C41.1302 31.8912 41.9253 32.4687 42.4944 33.222C43.0803 33.9585 43.3733 34.8457 43.3733 35.8836C43.3733 36.8712 43.0887 37.725 42.5196 38.4448C41.9671 39.1478 41.1804 39.6835 40.1593 40.0518C39.1381 40.42 37.9413 40.6042 36.5686 40.6042ZM36.5686 38.2188C37.4223 38.2188 38.0919 38.0263 38.5774 37.6413C39.0795 37.2562 39.3306 36.729 39.3306 36.0594C39.3306 35.3563 39.0712 34.8123 38.5523 34.4272C38.0501 34.0422 37.3888 33.8497 36.5686 33.8497C35.7651 33.8497 35.1122 34.0422 34.6101 34.4272C34.1079 34.8123 33.8568 35.3563 33.8568 36.0594C33.8568 36.729 34.0995 37.2562 34.5849 37.6413C35.0704 38.0263 35.7316 38.2188 36.5686 38.2188Z" fill="#C59A4B"/>
<path d="M22.1657 48.7397V32.6696L23.9234 34.4272H18.6504V31.163H26.2335V48.7397H22.1657Z" fill="#C59A4B"/>
<path fill-rule="evenodd" clip-rule="evenodd" d="M39.9669 1.24092L30.2301 10.9777H29.0972L39.9669 0.107971L50.8366 10.9777H49.7036L39.9669 1.24092ZM28.3472 11.7276H29.4802L28.6789 12.5288H27.546L28.3472 11.7276ZM25.3849 14.6899L14.7797 25.2952V26.4281L26.5179 14.6899H25.3849ZM12.625 27.4498V28.5828L11.821 29.3868V28.2539L12.625 27.4498ZM50.4535 11.7276H51.5865L52.3877 12.5288H51.2548L50.4535 11.7276ZM53.4159 14.6899L65.3043 26.5784V25.4454L54.5488 14.6899H53.4159ZM67.459 28.733V27.6001L68.2632 28.4043V29.5372L67.459 28.733ZM69.0131 30.2872L78.5505 39.8246L68.8951 49.48H69.013V50.495L79.6835 39.8246L69.0131 29.1542V30.2872ZM68.2631 51.2449V50.112L67.459 50.9161V52.0491L68.2631 51.2449ZM53.1623 65.2128L65.3043 53.0708V54.2037L54.2953 65.2128H53.1623ZM51.0012 67.3739L50.2054 68.1697H51.3384L52.1342 67.3739H51.0012ZM50.5885 68.9196H49.4555L39.9669 78.4082L30.4782 68.9196H29.3452L39.9669 79.5412L50.5885 68.9196ZM25.6384 65.2128L14.7797 54.354V53.221L26.7714 65.2128H25.6384ZM27.7995 67.3739L28.5953 68.1697H29.7283L28.9325 67.3739H27.7995ZM11.821 51.3953L12.625 52.1993V51.0664L11.821 50.2624V51.3953ZM11.0711 29.0038V30.1367L1.38319 39.8246L11.0711 49.5125V50.6454L0.250244 39.8246L11.0711 29.0038Z" fill="#C59A4B"/>
<path d="M101.283 22.9062H103.969V41.7032H101.283V22.9062ZM116.927 22.9062C119.362 22.9062 121.277 23.488 122.674 24.6516C124.07 25.8152 124.768 27.4175 124.768 29.4583C124.768 31.4991 124.07 33.1013 122.674 34.265C121.277 35.4286 119.362 36.0104 116.927 36.0104H112.281V41.7032H109.596V22.9062H116.927ZM116.846 33.6742C118.547 33.6742 119.845 33.3162 120.74 32.6001C121.635 31.8661 122.083 30.8188 122.083 29.4583C122.083 28.0977 121.635 27.0594 120.74 26.3434C119.845 25.6094 118.547 25.2424 116.846 25.2424H112.281V33.6742H116.846ZM140.483 22.9062V41.7032H137.825V25.2424H133.582V22.9062H140.483ZM156.088 31.8482C157.162 32.2599 157.986 32.8507 158.558 33.6205C159.131 34.3903 159.418 35.3122 159.418 36.3863C159.418 37.5142 159.113 38.4988 158.505 39.3402C157.896 40.1636 157.028 40.7992 155.9 41.2467C154.772 41.6943 153.447 41.918 151.926 41.918C150.422 41.918 149.106 41.6943 147.978 41.2467C146.868 40.7992 146.009 40.1636 145.401 39.3402C144.792 38.4988 144.488 37.5142 144.488 36.3863C144.488 35.3122 144.765 34.3903 145.32 33.6205C145.893 32.8507 146.716 32.2599 147.79 31.8482C146.931 31.4365 146.278 30.8904 145.83 30.2102C145.383 29.5299 145.159 28.7243 145.159 27.7934C145.159 26.7551 145.436 25.8511 145.991 25.0813C146.564 24.3115 147.361 23.7207 148.381 23.309C149.402 22.8972 150.583 22.6914 151.926 22.6914C153.286 22.6914 154.477 22.8972 155.497 23.309C156.536 23.7207 157.332 24.3115 157.887 25.0813C158.46 25.8511 158.746 26.7551 158.746 27.7934C158.746 28.7064 158.514 29.512 158.048 30.2102C157.601 30.8904 156.947 31.4365 156.088 31.8482ZM151.926 24.8664C150.655 24.8664 149.652 25.1439 148.918 25.6989C148.184 26.2359 147.817 26.9699 147.817 27.9008C147.817 28.8317 148.175 29.5657 148.891 30.1028C149.625 30.6398 150.637 30.9083 151.926 30.9083C153.233 30.9083 154.253 30.6398 154.987 30.1028C155.739 29.5657 156.115 28.8317 156.115 27.9008C156.115 26.9699 155.73 26.2359 154.96 25.6989C154.208 25.1439 153.197 24.8664 151.926 24.8664ZM151.926 39.743C153.412 39.743 154.584 39.4386 155.444 38.83C156.303 38.2034 156.732 37.362 156.732 36.3058C156.732 35.2675 156.303 34.4529 155.444 33.8622C154.584 33.2535 153.412 32.9492 151.926 32.9492C150.44 32.9492 149.276 33.2535 148.435 33.8622C147.594 34.4529 147.173 35.2675 147.173 36.3058C147.173 37.362 147.594 38.2034 148.435 38.83C149.276 39.4386 150.44 39.743 151.926 39.743ZM169.556 41.918C168.07 41.918 166.746 41.5421 165.582 40.7902C164.436 40.0204 163.532 38.9105 162.87 37.4605C162.207 36.0104 161.876 34.2918 161.876 32.3047C161.876 30.3176 162.207 28.599 162.87 27.1489C163.532 25.6989 164.436 24.5979 165.582 23.846C166.746 23.0763 168.07 22.6914 169.556 22.6914C171.024 22.6914 172.331 23.0763 173.477 23.846C174.64 24.5979 175.553 25.6989 176.216 27.1489C176.878 28.599 177.209 30.3176 177.209 32.3047C177.209 34.2918 176.878 36.0104 176.216 37.4605C175.553 38.9105 174.64 40.0204 173.477 40.7902C172.331 41.5421 171.024 41.918 169.556 41.918ZM169.556 39.5281C171.06 39.5281 172.259 38.9105 173.154 37.6753C174.067 36.44 174.524 34.6499 174.524 32.3047C174.524 29.9595 174.067 28.1694 173.154 26.9341C172.259 25.6989 171.06 25.0813 169.556 25.0813C168.035 25.0813 166.817 25.6989 165.904 26.9341C165.009 28.1694 164.562 29.9595 164.562 32.3047C164.562 34.6499 165.009 36.44 165.904 37.6753C166.817 38.9105 168.035 39.5281 169.556 39.5281Z" fill="#C59A4B"/>
<path d="M110.229 60.399L110.215 53.223L106.655 59.203H106.007L102.448 53.2653V60.399H101.097V50.5496H102.251L106.359 57.4724L110.412 50.5496H111.565L111.579 60.399H110.229ZM121.078 56.7125C121.078 56.8157 121.069 56.9517 121.05 57.1206H115C115.084 57.7772 115.37 58.3072 115.858 58.7106C116.355 59.1045 116.97 59.3015 117.701 59.3015C118.592 59.3015 119.31 59.0014 119.854 58.401L120.6 59.2734C120.262 59.6674 119.84 59.9675 119.333 60.1739C118.836 60.3803 118.278 60.4835 117.659 60.4835C116.871 60.4835 116.172 60.324 115.562 60.0051C114.953 59.6767 114.479 59.2218 114.141 58.6402C113.813 58.0586 113.649 57.402 113.649 56.6703C113.649 55.948 113.808 55.2961 114.127 54.7145C114.456 54.1329 114.901 53.6827 115.464 53.3637C116.036 53.0354 116.679 52.8713 117.392 52.8713C118.105 52.8713 118.738 53.0354 119.291 53.3637C119.854 53.6827 120.29 54.1329 120.6 54.7145C120.919 55.2961 121.078 55.9621 121.078 56.7125ZM117.392 54.011C116.744 54.011 116.2 54.208 115.759 54.602C115.328 54.9959 115.075 55.5119 115 56.1497H119.784C119.709 55.5212 119.451 55.01 119.01 54.616C118.578 54.2127 118.039 54.011 117.392 54.011ZM122.954 49.9587H124.305V60.399H122.954V49.9587ZM131.255 59.9628C131.058 60.1317 130.814 60.263 130.524 60.3568C130.233 60.4412 129.933 60.4835 129.623 60.4835C128.873 60.4835 128.291 60.2818 127.878 59.8784C127.466 59.4751 127.259 58.8982 127.259 58.1477V54.0532H125.993V52.9416H127.259V51.3094H128.61V52.9416H130.749V54.0532H128.61V58.0915C128.61 58.4948 128.709 58.8044 128.906 59.0201C129.112 59.2359 129.403 59.3437 129.778 59.3437C130.191 59.3437 130.542 59.2265 130.833 58.992L131.255 59.9628ZM136.842 52.8713C137.565 52.8713 138.212 53.0307 138.784 53.3497C139.356 53.6686 139.802 54.1142 140.121 54.6864C140.449 55.2586 140.613 55.9199 140.613 56.6703C140.613 57.4208 140.449 58.0868 140.121 58.6684C139.802 59.2406 139.356 59.6861 138.784 60.0051C138.212 60.324 137.565 60.4835 136.842 60.4835C136.289 60.4835 135.782 60.3756 135.323 60.1598C134.863 59.9441 134.483 59.6298 134.183 59.2171V60.399H132.888V49.9587H134.239V54.0673C134.539 53.6733 134.915 53.3778 135.365 53.1808C135.815 52.9745 136.308 52.8713 136.842 52.8713ZM136.73 59.3015C137.208 59.3015 137.635 59.1937 138.01 58.9779C138.395 58.7528 138.695 58.4432 138.911 58.0492C139.136 57.6459 139.248 57.1863 139.248 56.6703C139.248 56.1544 139.136 55.6995 138.911 55.3055C138.695 54.9021 138.395 54.5926 138.01 54.3768C137.635 54.1611 137.208 54.0532 136.73 54.0532C136.261 54.0532 135.834 54.1611 135.449 54.3768C135.065 54.5926 134.764 54.9021 134.549 55.3055C134.333 55.6995 134.225 56.1544 134.225 56.6703C134.225 57.1863 134.333 57.6459 134.549 58.0492C134.764 58.4432 135.065 58.7528 135.449 58.9779C135.834 59.1937 136.261 59.3015 136.73 59.3015ZM142.479 49.9587H143.83V60.399H142.479V49.9587ZM149.603 60.4835C148.862 60.4835 148.196 60.3193 147.605 59.991C147.014 59.6627 146.55 59.2124 146.212 58.6402C145.884 58.0586 145.72 57.402 145.72 56.6703C145.72 55.9387 145.884 55.2867 146.212 54.7145C146.55 54.1329 147.014 53.6827 147.605 53.3637C148.196 53.0354 148.862 52.8713 149.603 52.8713C150.344 52.8713 151.006 53.0354 151.587 53.3637C152.178 53.6827 152.638 54.1329 152.966 54.7145C153.304 55.2867 153.473 55.9387 153.473 56.6703C153.473 57.402 153.304 58.0586 152.966 58.6402C152.638 59.2124 152.178 59.6627 151.587 59.991C151.006 60.3193 150.344 60.4835 149.603 60.4835ZM149.603 59.3015C150.082 59.3015 150.509 59.1937 150.884 58.9779C151.268 58.7528 151.569 58.4432 151.784 58.0492C152 57.6459 152.108 57.1863 152.108 56.6703C152.108 56.1544 152 55.6995 151.784 55.3055C151.569 54.9021 151.268 54.5926 150.884 54.3768C150.509 54.1611 150.082 54.0532 149.603 54.0532C149.125 54.0532 148.693 54.1611 148.309 54.3768C147.934 54.5926 147.633 54.9021 147.408 55.3055C147.193 55.6995 147.085 56.1544 147.085 56.6703C147.085 57.1863 147.193 57.6459 147.408 58.0492C147.633 58.4432 147.934 58.7528 148.309 58.9779C148.693 59.1937 149.125 59.3015 149.603 59.3015ZM166.419 52.9416L163.633 60.399H162.339L160.186 54.7427L158.005 60.399H156.711L153.939 52.9416H155.219L157.386 58.8794L159.637 52.9416H160.777L162.986 58.9076L165.209 52.9416H166.419ZM171.772 52.8713C172.719 52.8713 173.47 53.148 174.023 53.7014C174.586 54.2455 174.868 55.0475 174.868 56.1075V60.399H173.517V56.2623C173.517 55.54 173.343 54.9959 172.996 54.6301C172.649 54.2643 172.152 54.0813 171.505 54.0813C170.773 54.0813 170.196 54.2971 169.774 54.7286C169.352 55.1507 169.141 55.7604 169.141 56.5578V60.399H167.79V52.9416H169.084V54.0673C169.357 53.6827 169.722 53.3872 170.182 53.1808C170.651 52.9745 171.181 52.8713 171.772 52.8713Z" fill="#C59A4B"/>
</svg>
