<svg width="51" height="49" viewBox="0 0 51 49" fill="none" xmlns="http://www.w3.org/2000/svg">
<rect x="0.78418" y="0.164978" width="50" height="48.8351" rx="24.4175" fill="#C59A4B"/>
<path d="M33.4731 30.9834L29.4889 28.9913C29.3019 28.898 29.0903 28.8659 28.884 28.8995C28.6777 28.9331 28.4872 29.0307 28.3395 29.1786L26.6711 30.847C24.2736 30.4615 20.4956 26.6845 20.1111 24.287L21.7795 22.6186C21.9273 22.4709 22.025 22.2804 22.0586 22.0741C22.0922 21.8678 22.0601 21.6562 21.9667 21.4691L19.9746 17.4849C19.9094 17.3543 19.8163 17.2397 19.7019 17.1491C19.5874 17.0584 19.4545 16.9941 19.3124 16.9605C19.1703 16.927 19.0226 16.9251 18.8797 16.9549C18.7368 16.9848 18.6023 17.0457 18.4855 17.1333L14.5013 20.1215C14.3776 20.2143 14.2772 20.3346 14.2081 20.4729C14.1389 20.6112 14.1029 20.7637 14.1029 20.9183C14.1029 30.4505 20.5075 36.8551 30.0397 36.8551C30.1944 36.8551 30.3469 36.8191 30.4852 36.75C30.6235 36.6808 30.7438 36.5804 30.8366 36.4567L33.8247 32.4725C33.9124 32.3558 33.9733 32.2212 34.0031 32.0783C34.033 31.9354 34.0311 31.7877 33.9975 31.6457C33.964 31.5036 33.8996 31.3706 33.809 31.2562C33.7184 31.1418 33.6037 31.0486 33.4731 30.9834Z" fill="white"/>
<path d="M26.7848 13.6577C29.1136 13.9806 36.3516 13.6577 36.3516 23.548" stroke="white" stroke-width="2"/>
<path d="M25.784 18.6028C27.192 18.798 31.5679 18.6028 31.5679 24.5823" stroke="white" stroke-width="2"/>
</svg>
