<svg width="51" height="50" viewBox="0 0 51 50" fill="none" xmlns="http://www.w3.org/2000/svg">
<rect x="0.78418" y="0.844116" width="50" height="48.8351" rx="24.4175" fill="#1FB31C"/>
<path d="M16.0703 33.5173L15.8136 35.4395L17.7386 35.2049L20.1022 34.9168C21.7718 35.9046 23.7132 36.4675 25.7868 36.4675C31.9673 36.4675 36.9902 31.4411 36.9902 25.2617C36.9902 19.0822 31.9673 14.0558 25.7868 14.0558H25.782C19.6017 14.0558 14.5786 19.0808 14.5786 25.2617C14.5786 27.4906 15.233 29.5748 16.3633 31.323L16.0703 33.5173Z" stroke="white" stroke-width="3"/>
<path d="M30.6191 30.0151L30.5368 30.0974C30.1262 30.5113 29.576 30.757 28.9938 30.7865H28.5876C26.4378 30.7865 24.7096 29.9842 22.8839 28.1635C20.9449 26.2245 20.1632 24.3987 20.2713 22.0534H20.2711C20.3006 21.4713 20.5464 20.921 20.9603 20.5105L21.0426 20.4282C21.5632 19.9054 22.2992 19.6574 23.0301 19.7585C23.7609 19.8596 24.402 20.298 24.7612 20.9425L24.8744 21.1482H24.8743C25.0171 21.4085 25.0718 21.708 25.03 22.002C24.9884 22.2959 24.8524 22.5684 24.6428 22.7787L23.9537 23.4678C24.3516 24.2337 24.8728 24.9287 25.4966 25.5251C26.093 26.1489 26.788 26.6701 27.5539 27.068L28.2379 26.3891C28.453 26.1777 28.7317 26.0431 29.0311 26.0059C29.3304 25.9687 29.6336 26.031 29.894 26.1834L30.0997 26.2966C30.7442 26.6558 31.1827 27.2967 31.2837 28.0277C31.3848 28.7585 31.1368 29.4944 30.614 30.015L30.6191 30.0151Z" fill="white"/>
</svg>
